<svg style="vertical-align: -0.564ex;" xmlns="http://www.w3.org/2000/svg" width="6.094ex" height="2.727ex" role="img" focusable="false" viewBox="0 -956 2693.3 1205.5"><g stroke="currentColor" fill="currentColor" stroke-width="0" transform="scale(1,-1)"><g data-mml-node="math"><g data-mml-node="mo" transform="translate(0 -0.5)"><path data-c="7C" d="M139 -249H137Q125 -249 119 -235V251L120 737Q130 750 139 750Q152 750 159 735V-235Q151 -249 141 -249H139Z"></path></g><g data-mml-node="TeXAtom" data-mjx-texclass="ORD" transform="translate(278,0)"><g data-mml-node="mover"><g data-mml-node="mi"><path data-c="1D446" d="M308 24Q367 24 416 76T466 197Q466 260 414 284Q308 311 278 321T236 341Q176 383 176 462Q176 523 208 573T273 648Q302 673 343 688T407 704H418H425Q521 704 564 640Q565 640 577 653T603 682T623 704Q624 704 627 704T632 705Q645 705 645 698T617 577T585 459T569 456Q549 456 549 465Q549 471 550 475Q550 478 551 494T553 520Q553 554 544 579T526 616T501 641Q465 662 419 662Q362 662 313 616T263 510Q263 480 278 458T319 427Q323 425 389 408T456 390Q490 379 522 342T554 242Q554 216 546 186Q541 164 528 137T492 78T426 18T332 -20Q320 -22 298 -22Q199 -22 144 33L134 44L106 13Q83 -14 78 -18T65 -22Q52 -22 52 -14Q52 -11 110 221Q112 227 130 227H143Q149 221 149 216Q149 214 148 207T144 186T142 153Q144 114 160 87T203 47T255 29T308 24Z"></path></g><g data-mml-node="mo" transform="translate(413.8,266) translate(-250 0)"><path data-c="AF" d="M69 544V590H430V544H69Z"></path></g></g></g><g data-mml-node="msup" transform="translate(923,0)"><g data-mml-node="mo" transform="translate(0 -0.5)"><path data-c="7C" d="M139 -249H137Q125 -249 119 -235V251L120 737Q130 750 139 750Q152 750 159 735V-235Q151 -249 141 -249H139Z"></path></g><g data-mml-node="mn" transform="translate(311,363) scale(0.707)"><path data-c="32" d="M109 429Q82 429 66 447T50 491Q50 562 103 614T235 666Q326 666 387 610T449 465Q449 422 429 383T381 315T301 241Q265 210 201 149L142 93L218 92Q375 92 385 97Q392 99 409 186V189H449V186Q448 183 436 95T421 3V0H50V19V31Q50 38 56 46T86 81Q115 113 136 137Q145 147 170 174T204 211T233 244T261 278T284 308T305 340T320 369T333 401T340 431T343 464Q343 527 309 573T212 619Q179 619 154 602T119 569T109 550Q109 549 114 549Q132 549 151 535T170 489Q170 464 154 447T109 429Z"></path></g></g><g data-mml-node="mo" transform="translate(1915.3,0)"><path data-c="221D" d="M56 124T56 216T107 375T238 442Q260 442 280 438T319 425T352 407T382 385T406 361T427 336T442 315T455 297T462 285L469 297Q555 442 679 442Q687 442 722 437V398H718Q710 400 694 400Q657 400 623 383T567 343T527 294T503 253T495 235Q495 231 520 192T554 143Q625 44 696 44Q717 44 719 46H722V-5Q695 -11 678 -11Q552 -11 457 141Q455 145 454 146L447 134Q362 -11 235 -11Q157 -11 107 56ZM93 213Q93 143 126 87T220 31Q258 31 292 48T349 88T389 137T413 178T421 196Q421 200 396 239T362 288Q322 345 288 366T213 387Q163 387 128 337T93 213Z"></path></g></g></g></svg>