<svg style="vertical-align: -0.566ex;" xmlns="http://www.w3.org/2000/svg" width="16.045ex" height="2.262ex" role="img" focusable="false" viewBox="0 -750 7091.8 1000" xmlns:xlink="http://www.w3.org/1999/xlink"><defs><path id="MJX-768-TEX-D-1D540" d="M20 666Q20 676 31 683H358Q369 676 369 666Q369 648 331 648Q288 645 282 632Q278 626 278 341Q278 57 282 50Q286 42 295 40T331 35Q369 35 369 16Q369 6 358 -1H31Q20 4 20 16Q20 35 58 35Q84 37 93 39T107 50Q113 60 113 341Q113 623 107 632Q101 645 58 648Q20 648 20 666ZM249 35Q246 40 246 41T244 54T242 83T242 139V341Q242 632 244 639L249 648H140Q146 634 147 596T149 341Q149 124 148 86T140 35H249Z"></path><path id="MJX-768-TEX-C-52" d="M37 475Q19 475 19 487Q19 503 35 530T83 589T180 647T327 682H374Q387 682 417 682T464 683Q519 683 559 679T642 663T708 625T731 557Q731 481 668 411T504 300Q506 296 512 286T528 257T553 202Q594 105 611 82Q635 47 665 47Q708 47 742 93Q758 113 786 128Q804 136 819 137Q837 137 837 125Q837 115 818 92T767 43T687 -2T589 -22Q549 -22 517 22T467 120T422 221T362 273Q346 273 346 287Q348 301 373 320T436 342Q437 342 446 343T462 345T481 348T504 353T527 362T553 375T577 393Q598 412 614 443T630 511Q630 545 613 566T541 600T393 614Q370 614 370 613L366 584Q349 446 311 307T243 96L213 25Q205 8 179 -7T132 -22Q125 -22 120 -18T117 -8Q117 -5 130 26T163 113T205 239T246 408T274 606V614Q273 614 259 613T231 609T198 602T163 588Q131 572 113 518Q102 502 80 490T37 475Z"></path><path id="MJX-768-TEX-N-28" d="M94 250Q94 319 104 381T127 488T164 576T202 643T244 695T277 729T302 750H315H319Q333 750 333 741Q333 738 316 720T275 667T226 581T184 443T167 250T184 58T225 -81T274 -167T316 -220T333 -241Q333 -250 318 -250H315H302L274 -226Q180 -141 137 -14T94 250Z"></path><path id="MJX-768-TEX-M-1D69B" d="M327 76Q359 76 369 70T380 38Q380 10 359 1H47Q24 8 24 38Q24 54 28 61T47 76H145V355H96L47 356Q24 363 24 393Q24 409 28 416T47 431H207Q223 419 226 414T229 393V387V369Q297 437 394 437Q436 437 461 417T487 368Q487 347 473 332T438 317Q428 317 420 320T407 327T398 337T393 347T390 356L388 361Q348 356 324 345Q228 299 228 170Q228 161 228 151T229 138V76H293H327Z"></path><path id="MJX-768-TEX-M-1D69E" d="M4 393Q4 416 15 423T52 431H90Q141 431 151 429T168 417Q171 412 173 409V254L174 100Q182 70 244 70Q320 70 344 119Q349 130 350 144T351 248V355H320L289 356Q266 363 266 393Q266 408 270 415T289 431H351H386Q409 431 418 428T433 411Q435 406 435 241V76H498Q512 67 516 60T520 38Q520 9 498 1H436H394Q372 1 364 5T351 26L342 21Q293 -5 227 -5Q118 -5 96 67Q91 82 90 101T89 227V355H58L27 356Q4 363 4 393Z"></path><path id="MJX-768-TEX-M-1D697" d="M89 431Q94 431 105 431T122 432Q173 432 173 399Q173 394 175 394Q176 394 190 404T233 425T298 436Q343 436 371 423Q411 402 423 365T436 265Q436 257 436 239T435 211V198V76H498Q512 67 516 60T520 38Q520 9 498 1H308Q286 9 286 32V38V45Q286 65 303 73Q309 76 329 76H351V188Q351 204 351 230T352 266Q352 321 341 341T288 361Q253 361 222 341T176 274L174 264L173 170V76H236Q250 67 254 60T258 38Q258 9 236 1H27Q4 8 4 38Q4 53 8 60T27 76H89V355H58L27 356Q4 363 4 393Q4 408 8 415T27 431H89Z"></path><path id="MJX-768-TEX-N-29" d="M60 749L64 750Q69 750 74 750H86L114 726Q208 641 251 514T294 250Q294 182 284 119T261 12T224 -76T186 -143T145 -194T113 -227T90 -246Q87 -249 86 -250H74Q66 -250 63 -250T58 -247T55 -238Q56 -237 66 -225Q221 -64 221 250T66 725Q56 737 55 738Q55 746 60 749Z"></path><path id="MJX-768-TEX-N-2208" d="M84 250Q84 372 166 450T360 539Q361 539 377 539T419 540T469 540H568Q583 532 583 520Q583 511 570 501L466 500Q355 499 329 494Q280 482 242 458T183 409T147 354T129 306T124 272V270H568Q583 262 583 250T568 230H124V228Q124 207 134 177T167 112T231 48T328 7Q355 1 466 0H570Q583 -10 583 -20Q583 -32 568 -40H471Q464 -40 446 -40T417 -41Q262 -41 172 45Q84 127 84 250Z"></path><path id="MJX-768-TEX-N-7B" d="M434 -231Q434 -244 428 -250H410Q281 -250 230 -184Q225 -177 222 -172T217 -161T213 -148T211 -133T210 -111T209 -84T209 -47T209 0Q209 21 209 53Q208 142 204 153Q203 154 203 155Q189 191 153 211T82 231Q71 231 68 234T65 250T68 266T82 269Q116 269 152 289T203 345Q208 356 208 377T209 529V579Q209 634 215 656T244 698Q270 724 324 740Q361 748 377 749Q379 749 390 749T408 750H428Q434 744 434 732Q434 719 431 716Q429 713 415 713Q362 710 332 689T296 647Q291 634 291 499V417Q291 370 288 353T271 314Q240 271 184 255L170 250L184 245Q202 239 220 230T262 196T290 137Q291 131 291 1Q291 -134 296 -147Q306 -174 339 -192T415 -213Q429 -213 431 -216Q434 -219 434 -231Z"></path><path id="MJX-768-TEX-N-30" d="M96 585Q152 666 249 666Q297 666 345 640T423 548Q460 465 460 320Q460 165 417 83Q397 41 362 16T301 -15T250 -22Q224 -22 198 -16T137 16T82 83Q39 165 39 320Q39 494 96 585ZM321 597Q291 629 250 629Q208 629 178 597Q153 571 145 525T137 333Q137 175 145 125T181 46Q209 16 250 16Q290 16 318 46Q347 76 354 130T362 333Q362 478 354 524T321 597Z"></path><path id="MJX-768-TEX-N-2C" d="M78 35T78 60T94 103T137 121Q165 121 187 96T210 8Q210 -27 201 -60T180 -117T154 -158T130 -185T117 -194Q113 -194 104 -185T95 -172Q95 -168 106 -156T131 -126T157 -76T173 -3V9L172 8Q170 7 167 6T161 3T152 1T140 0Q113 0 96 17Z"></path><path id="MJX-768-TEX-N-31" d="M213 578L200 573Q186 568 160 563T102 556H83V602H102Q149 604 189 617T245 641T273 663Q275 666 285 666Q294 666 302 660V361L303 61Q310 54 315 52T339 48T401 46H427V0H416Q395 3 257 3Q121 3 100 0H88V46H114Q136 46 152 46T177 47T193 50T201 52T207 57T213 61V578Z"></path><path id="MJX-768-TEX-N-7D" d="M65 731Q65 745 68 747T88 750Q171 750 216 725T279 670Q288 649 289 635T291 501Q292 362 293 357Q306 312 345 291T417 269Q428 269 431 266T434 250T431 234T417 231Q380 231 345 210T298 157Q293 143 292 121T291 -28V-79Q291 -134 285 -156T256 -198Q202 -250 89 -250Q71 -250 68 -247T65 -230Q65 -224 65 -223T66 -218T69 -214T77 -213Q91 -213 108 -210T146 -200T183 -177T207 -139Q208 -134 209 3L210 139Q223 196 280 230Q315 247 330 250Q305 257 280 270Q225 304 212 352L210 362L209 498Q208 635 207 640Q195 680 154 696T77 713Q68 713 67 716T65 731Z"></path></defs><g stroke="currentColor" fill="currentColor" stroke-width="0" transform="scale(1,-1)"><g data-mml-node="math"><g data-mml-node="msub"><g data-mml-node="TeXAtom" data-mjx-texclass="ORD"><g data-mml-node="mi"><use data-c="1D540" xlink:href="#MJX-768-TEX-D-1D540"></use></g></g><g data-mml-node="TeXAtom" transform="translate(422,-150) scale(0.707)" data-mjx-texclass="ORD"><g data-mml-node="TeXAtom" data-mjx-texclass="ORD"><g data-mml-node="mi"><use data-c="52" xlink:href="#MJX-768-TEX-C-52"></use></g></g></g></g><g data-mml-node="mo" transform="translate(1071.6,0)"><use data-c="28" xlink:href="#MJX-768-TEX-N-28"></use></g><g data-mml-node="mtext" transform="translate(1460.6,0)"><use data-c="1D69B" xlink:href="#MJX-768-TEX-M-1D69B"></use><use data-c="1D69E" xlink:href="#MJX-768-TEX-M-1D69E" transform="translate(525,0)"></use><use data-c="1D697" xlink:href="#MJX-768-TEX-M-1D697" transform="translate(1050,0)"></use></g><g data-mml-node="mo" transform="translate(3035.6,0)"><use data-c="29" xlink:href="#MJX-768-TEX-N-29"></use></g><g data-mml-node="mo" transform="translate(3702.4,0)"><use data-c="2208" xlink:href="#MJX-768-TEX-N-2208"></use></g><g data-mml-node="mo" transform="translate(4647.2,0)"><use data-c="7B" xlink:href="#MJX-768-TEX-N-7B"></use></g><g data-mml-node="mn" transform="translate(5147.2,0)"><use data-c="30" xlink:href="#MJX-768-TEX-N-30"></use></g><g data-mml-node="mo" transform="translate(5647.2,0)"><use data-c="2C" xlink:href="#MJX-768-TEX-N-2C"></use></g><g data-mml-node="mn" transform="translate(6091.8,0)"><use data-c="31" xlink:href="#MJX-768-TEX-N-31"></use></g><g data-mml-node="mo" transform="translate(6591.8,0)"><use data-c="7D" xlink:href="#MJX-768-TEX-N-7D"></use></g></g></g></svg>